<svg xmlns="http://www.w3.org/2000/svg" xmlns:xlink="http://www.w3.org/1999/xlink" width="500" zoomAndPan="magnify" viewBox="0 0 375 374.999991" height="500" preserveAspectRatio="xMidYMid meet" version="1.0"><defs><g/><clipPath id="2e0f3ce5de"><path d="M 254.554688 207.582031 L 274.15625 207.582031 L 274.15625 227.183594 L 254.554688 227.183594 Z M 254.554688 207.582031 " clip-rule="nonzero"/></clipPath><clipPath id="1824dff475"><path d="M 264.355469 207.582031 C 258.941406 207.582031 254.554688 211.96875 254.554688 217.382812 C 254.554688 222.796875 258.941406 227.183594 264.355469 227.183594 C 269.769531 227.183594 274.15625 222.796875 274.15625 217.382812 C 274.15625 211.96875 269.769531 207.582031 264.355469 207.582031 Z M 264.355469 207.582031 " clip-rule="nonzero"/></clipPath></defs><g fill="#000000" fill-opacity="1"><g transform="translate(94.807395, 224.624985)"><g><path d="M 3.578125 0 L 3.578125 -80.84375 L 19.765625 -80.84375 L 19.765625 -13.734375 L 36.421875 -13.734375 L 36.421875 0 Z M 3.578125 0 "/></g></g></g><g fill="#000000" fill-opacity="1"><g transform="translate(126.989736, 224.624985)"><g><path d="M 15.8125 0.75 C 10.476562 0.75 6.820312 -1.019531 4.84375 -4.5625 C 2.863281 -8.101562 1.875 -13.171875 1.875 -19.765625 C 1.875 -25.160156 2.578125 -29.300781 3.984375 -32.1875 C 5.398438 -35.070312 7.363281 -37.1875 9.875 -38.53125 C 12.382812 -39.882812 16.210938 -41.378906 21.359375 -43.015625 L 25.875 -44.515625 L 25.875 -51.578125 C 25.875 -53.390625 25.515625 -54.78125 24.796875 -55.75 C 24.078125 -56.726562 23.210938 -57.21875 22.203125 -57.21875 C 21.328125 -57.21875 20.5625 -56.804688 19.90625 -55.984375 C 19.25 -55.171875 18.921875 -54.078125 18.921875 -52.703125 L 18.921875 -48.5625 L 2.921875 -48.5625 L 2.921875 -50.8125 C 2.921875 -57.59375 4.503906 -62.425781 7.671875 -65.3125 C 10.835938 -68.195312 16 -69.640625 23.15625 -69.640625 C 28.863281 -69.640625 33.503906 -68.148438 37.078125 -65.171875 C 40.648438 -62.191406 42.4375 -57.972656 42.4375 -52.515625 L 42.4375 0 L 26.0625 0 L 26.0625 -8.1875 C 25.25 -5.363281 23.945312 -3.164062 22.15625 -1.59375 C 20.375 -0.03125 18.257812 0.75 15.8125 0.75 Z M 22.296875 -12.046875 C 23.554688 -12.046875 24.453125 -12.5625 24.984375 -13.59375 C 25.515625 -14.632812 25.78125 -15.90625 25.78125 -17.40625 L 25.78125 -36.609375 C 23.332031 -35.671875 21.53125 -34.476562 20.375 -33.03125 C 19.21875 -31.59375 18.640625 -29.585938 18.640625 -27.015625 L 18.640625 -18.15625 C 18.640625 -14.082031 19.859375 -12.046875 22.296875 -12.046875 Z M 22.296875 -12.046875 "/></g></g></g><g fill="#000000" fill-opacity="1"><g transform="translate(167.264811, 224.624985)"><g><path d="M 29.921875 0.75 C 25.410156 0.75 22.179688 -1.945312 20.234375 -7.34375 L 20.234375 0 L 3.296875 0 L 3.296875 -81.3125 L 20.234375 -81.3125 L 20.234375 -65.59375 C 22.867188 -68.289062 25.941406 -69.640625 29.453125 -69.640625 C 34.785156 -69.640625 38.613281 -68.054688 40.9375 -64.890625 C 43.257812 -61.722656 44.421875 -57.160156 44.421875 -51.203125 L 44.421875 -17.96875 C 44.421875 -12.320312 43.226562 -7.789062 40.84375 -4.375 C 38.457031 -0.957031 34.816406 0.75 29.921875 0.75 Z M 24.375 -12.046875 C 25.5 -12.046875 26.296875 -12.40625 26.765625 -13.125 C 27.242188 -13.84375 27.53125 -14.75 27.625 -15.84375 C 27.71875 -16.945312 27.765625 -18.660156 27.765625 -20.984375 L 27.765625 -49.6875 C 27.765625 -52.132812 27.539062 -53.953125 27.09375 -55.140625 C 26.65625 -56.335938 25.71875 -56.9375 24.28125 -56.9375 C 22.707031 -56.9375 21.640625 -56.335938 21.078125 -55.140625 C 20.515625 -53.953125 20.234375 -52.195312 20.234375 -49.875 L 20.234375 -20.984375 C 20.234375 -17.972656 20.484375 -15.726562 20.984375 -14.25 C 21.484375 -12.78125 22.613281 -12.046875 24.375 -12.046875 Z M 24.375 -12.046875 "/></g></g></g><g fill="#000000" fill-opacity="1"><g transform="translate(209.233715, 224.624985)"><g><path d="M 22.203125 0.75 C 8.585938 0.75 1.78125 -6.148438 1.78125 -19.953125 L 1.875 -25.40625 L 18.34375 -25.40625 L 18.453125 -17.3125 C 18.453125 -15.6875 18.765625 -14.445312 19.390625 -13.59375 C 20.015625 -12.75 21.046875 -12.328125 22.484375 -12.328125 C 24.679688 -12.328125 25.78125 -14.113281 25.78125 -17.6875 C 25.78125 -20.320312 25.265625 -22.390625 24.234375 -23.890625 C 23.203125 -25.398438 21.554688 -27.003906 19.296875 -28.703125 L 10.546875 -35.484375 C 7.523438 -37.804688 5.359375 -40.203125 4.046875 -42.671875 C 2.734375 -45.148438 2.078125 -48.648438 2.078125 -53.171875 C 2.078125 -56.679688 3 -59.675781 4.84375 -62.15625 C 6.695312 -64.632812 9.160156 -66.5 12.234375 -67.75 C 15.304688 -69.007812 18.722656 -69.640625 22.484375 -69.640625 C 35.847656 -69.640625 42.53125 -62.988281 42.53125 -49.6875 L 42.53125 -48.375 L 25.5 -48.375 L 25.5 -51 C 25.5 -52.632812 25.234375 -54.03125 24.703125 -55.1875 C 24.171875 -56.351562 23.273438 -56.9375 22.015625 -56.9375 C 20.890625 -56.9375 20.03125 -56.601562 19.4375 -55.9375 C 18.84375 -55.28125 18.546875 -54.390625 18.546875 -53.265625 C 18.546875 -50.753906 19.515625 -48.8125 21.453125 -47.4375 L 31.625 -40 C 35.257812 -37.300781 38.046875 -34.363281 39.984375 -31.1875 C 41.929688 -28.019531 42.90625 -24.023438 42.90625 -19.203125 C 42.90625 -12.796875 41.085938 -7.867188 37.453125 -4.421875 C 33.816406 -0.972656 28.734375 0.75 22.203125 0.75 Z M 22.203125 0.75 "/></g></g></g><g fill="#000000" fill-opacity="1"><g transform="translate(248.756604, 224.624985)"><g/></g></g><g clip-path="url(#2e0f3ce5de)"><g clip-path="url(#1824dff475)"><path fill="#000000" d="M 254.554688 207.582031 L 274.15625 207.582031 L 274.15625 227.183594 L 254.554688 227.183594 Z M 254.554688 207.582031 " fill-opacity="1" fill-rule="nonzero"/></g></g></svg>